<svg xmlns="http://www.w3.org/2000/svg" xmlns:xlink="http://www.w3.org/1999/xlink" version="1.1" width="266.89300537109375" height="266.8949890136719" enable-background="new 0 0 266.893 266.895" xml:space="preserve" style=""><rect id="backgroundrect" width="100%" height="100%" x="0" y="0" fill="none" stroke="none"/>


<g class="currentLayer" style=""><title>Layer 1</title><path id="Blue_1_" fill="#ffffff" d="M248.082,262.307c7.854,0,14.223-6.369,14.223-14.225V18.812  c0-7.857-6.368-14.224-14.223-14.224H18.812c-7.857,0-14.224,6.367-14.224,14.224v229.27c0,7.855,6.366,14.225,14.224,14.225  H248.082z" class="" fill-opacity="1"/><path id="f" fill="#3897f0" d="M182.409,262.307v-99.803h33.499l5.016-38.895h-38.515V98.777c0-11.261,3.127-18.935,19.275-18.935  l20.596-0.009V45.045c-3.562-0.474-15.788-1.533-30.012-1.533c-29.695,0-50.025,18.126-50.025,51.413v28.684h-33.585v38.895h33.585  v99.803H182.409z" class="" opacity="1" fill-opacity="1"/></g></svg>